<svg xmlns="http://www.w3.org/2000/svg" width="19.998" height="20" viewBox="0 0 19.998 20"><path d="M10.491,3a.841.841,0,0,0-.6.247L8.024,5.117,3.911,4.468l-.558.558,3.03,1.732L4.938,8.2,3.43,7.825,3,8.255l3.078,3.078.43-.43L6.13,9.394,7.573,7.949,9.3,10.979l.558-.558L9.215,6.308l1.872-1.872A.843.843,0,0,0,10.491,3ZM13,3c-.052,0-.1.007-.151.008a2.513,2.513,0,0,1,0,1.667c.05,0,.1-.008.151-.008a8.28,8.28,0,0,1,4.725,1.476l-.558.19v.833h-.833L15.5,8V9.666l1.667-.833,2.5.833-.833,1.667L17.166,10.5H15.5l-1.667,1.667v1.667L15.5,15.5h1.667L18,17.165l-1.754,3.509a8.244,8.244,0,0,1-4.152.605L10.47,19.694l.029-3.362L8,13.832H5.5l-.631.968a8.342,8.342,0,0,1-.2-1.8c0-.232.017-.459.036-.685L3.239,10.851A10,10,0,1,0,13,3Z" transform="translate(-3 -2.998)" stroke="currentColor" fill="currentColor"/></svg>