<svg xmlns="http://www.w3.org/2000/svg" width="22.609" height="20" viewBox="0 0 22.609 20"><path d="M13.3,3a1.74,1.74,0,0,0-1.6,1.063L2.262,20.345A1.738,1.738,0,0,0,3.739,23H22.87a1.732,1.732,0,0,0,1.476-2.649L14.908,4.063A1.74,1.74,0,0,0,13.3,3Zm0,9.565a1.3,1.3,0,1,1-1.3,1.3A1.291,1.291,0,0,1,13.3,12.565ZM10.3,13.52a2.946,2.946,0,0,0-.036.35,3.043,3.043,0,0,0,6.087,0,2.946,2.946,0,0,0-.036-.35,9.583,9.583,0,0,1,2.318,2.089s-2.283,3.043-5.326,3.043-5.326-3.043-5.326-3.043A9.583,9.583,0,0,1,10.3,13.52Z" transform="translate(-2 -3)" stroke="currentColor" fill="currentColor"/></svg>