<svg xmlns="http://www.w3.org/2000/svg" width="45" height="45" viewBox="0 0 45 45"><g transform="translate(-5 -5)"><path d="M18.232,5A13.284,13.284,0,0,0,5,18.232V36.768A13.284,13.284,0,0,0,18.232,50H36.768A13.284,13.284,0,0,0,50,36.768V18.232A13.284,13.284,0,0,0,36.768,5Zm0,4.091H36.768a9.129,9.129,0,0,1,9.141,9.141V36.768a9.129,9.129,0,0,1-9.141,9.141H18.232a9.129,9.129,0,0,1-9.141-9.141V18.232A9.129,9.129,0,0,1,18.232,9.091Zm21.349,4.474a1.854,1.854,0,1,0,1.854,1.854A1.845,1.845,0,0,0,39.581,13.565ZM27.5,15.227A12.273,12.273,0,1,0,39.773,27.5,12.307,12.307,0,0,0,27.5,15.227Zm0,4.091A8.182,8.182,0,1,1,19.318,27.5,8.147,8.147,0,0,1,27.5,19.318Z" fill="#cad064"/></g></svg>