<svg xmlns="http://www.w3.org/2000/svg" viewBox="0 0 209.95 87.61"><defs><style>.a{fill:#cbcb64;}</style></defs><path class="a" d="M34.29.7c1.33,0,1.66.39,2,2.44,1.11,6.62,1.58,8.58,2.41,10.13.52,1,1,4.5,1.15,8.61.25,6.82,1.32,12.57,2.32,12.57.81,0,1.09-2.31,1.52-12.24.22-5.1.68-9.55,1-9.9a3.21,3.21,0,0,0,.63-2c0-2.36.86-2.87,5.76-3.36s4.83-.48,4.83,1.14a17.7,17.7,0,0,1-1,4.47A19.28,19.28,0,0,0,54,18c0,1.39-.31,2.71-.69,3s-.55,1.85-.3,4.17a26.46,26.46,0,0,1-.33,7.05c-.41,1.85-1,4.62-1.29,6.29-.67,3.57-2,6.75-3.15,7.47-.65.41-.76,2.32-.46,8a198.48,198.48,0,0,1,.17,21.58L47.66,83l-3.24,1c-3.71,1.08-6.14.33-6.7-2.07-.8-3.44-1.31-11.72-.8-13.11.3-.83.56-5.09.58-9.46,0-11.06.08-10.79-1.55-11-1.09-.17-1.59-.85-2-2.71a14.82,14.82,0,0,0-1.65-4.23c-.83-1.29-1.09-2.92-1-6.09a29,29,0,0,0-.62-7,30.75,30.75,0,0,1-.9-6,18.49,18.49,0,0,0-1.22-5.76,13.09,13.09,0,0,1-1.09-4.17c0-2.26-.94-4-4.13-7.61C21,2,20.87,1.7,22,.89c.63-.47,3-.87,5.16-.89C30,0,33.43.7,34.29.7ZM2.52,9.1C3.62,8.2,4.7,8,7,8.29a87.62,87.62,0,0,0,12.78.24,4.17,4.17,0,0,1,3.41,1.66c1.5,1.7,1.55,2.12,1.39,11.85-.09,5.56-.48,10.69-.86,11.42a19.52,19.52,0,0,0-1.16,4.8c-.34,2.58-.9,3.82-2.15,4.8l-1.69,1.32L20.26,46c4,4,4.46,5.17,3.75,9.2-.78,4.44-.61,21.23.22,21.52,1.42.5.4,5.42-1.12,5.42-.53,0-.93.29-.93.67s-.76.66-1.62.66a2.83,2.83,0,0,0-2,.66c-.22.36-2.88.66-5.93.66-4.43,0-6.09-.29-8.4-1.49-1.59-.82-3-1.5-3-1.52a38.52,38.52,0,0,1-.82-4.83c-.45-3.25-.45-5.21,0-6.06S1,58.75,1,40l0-29.66L2.52,9.1Zm11.63,6.36a3.16,3.16,0,0,0-2.23-.86c-2.05,0-2.27,1.58-1.88,13.57s.55,12.9,2.21,12.9,1.86-1.06,1.93-8.14a31.29,31.29,0,0,1,.5-6.62c.7-1.12.26-9.88-.53-10.85Zm.11,35.68c-1.38-2.19-2.95-2.8-3.44-1.33-.16.48-.23,5.16-.16,10.46.21,14.63.13,13.9,1.59,13.9,1.95,0,2.32-1.19,2.35-7.61a92.32,92.32,0,0,1,.53-9.6c.42-3,.27-4-.87-5.82ZM91.37,9.3a2.64,2.64,0,0,1-2,.66c-1.06,0-1.78.6-2.26,1.86a23.4,23.4,0,0,0-.71,10.59,13.85,13.85,0,0,1-.05,5.09c-.88,3.89-1.22,20.92-.49,25a117.76,117.76,0,0,1,.87,12.44c.31,11.26.75,13.24,3.27,14.46l3.14,1.53c.64.31,3.78.56,7,.56,5.43,0,6-.12,7.41-1.65s1.54-1.76.7-5.93a20.82,20.82,0,0,1-.07-9,52.44,52.44,0,0,0,.37-11.12,45.3,45.3,0,0,1,.66-12.38c1.42-7.74,1.38-20.54-.07-25.28-.28-.92-4.27.2-4.27,1.19,0,.32-.76.6-1.62.6a2.67,2.67,0,0,0-2.36,1.39c-.74,1.39-1,8.78-.32,9.86.18.29-.15,3.94-.73,8-.83,5.89-.91,8.37-.36,11.49a19.37,19.37,0,0,1,0,7.28,51.27,51.27,0,0,0-.46,9.26c.18,5.37.07,6-1,6.19a2.47,2.47,0,0,1-1.95-.49c-1-1-.8-34.42.27-37.67.53-1.6.66-4.9.39-10.06A56.06,56.06,0,0,1,97,13.11c.44-1.92.33-2.63-.57-3.43-1.25-1.13-4.4-1.37-5-.38Zm33.54-.21c-.79.15-1.45.56-1.45.91s-1.1.45-2.55.23c-2-.31-2.64-.17-3,.66A1.58,1.58,0,0,1,116.64,12c-2.54,0-3.2,5.49-2.18,18.2.33,4,.62,16.68.65,28.2.07,22.9.11,23.1,4,23.1,3.1,0,3.56-.59,3.94-5.09A20.57,20.57,0,0,1,124,71c.34-.64.49-4,.33-7.45S124,53.12,123.85,48s-.57-12.79-1-17.11c-.58-5.42-.63-8-.17-8.5.93-.93,2.12-.07,2.12,1.52A48.37,48.37,0,0,0,126,30.35c1.06,4.38,2.47,16.75,3.1,27.27q.49,8.15,2.43,12.38a8.48,8.48,0,0,1,.93,4.3c-.56,2.19.88,7.15,3,10.26,1.47,2.19,2.32,2.77,4.35,3,3.25.38,5.49-1.68,5.49-5.06,0-1.27.3-4.5.66-7.15a24.1,24.1,0,0,0,.13-6.78,14.2,14.2,0,0,1,0-5c.3-1.65.68-10,.87-18.56s.57-18.37.86-21.78c.62-7.22-.27-10.15-3.18-10.56a6.07,6.07,0,0,1-2.45-.86c-.55-.44-1.1-.17-1.79.89S139.31,17.31,139,27.5c-.24,7.29-.68,14.29-1,15.56a22.89,22.89,0,0,0,.09,6.95c1.61,11.32,1.56,16.78-.13,15.09-.61-.61-1.88-13.17-2.77-27.34-.15-2.39-.74-6.95-1.33-10.26s-1.37-8.07-1.76-10.72c-1.16-7.94-1.86-8.69-7.18-7.69Zm59.7.64c-4.17.39-5.15,1.66-3.27,4.2a7.13,7.13,0,0,1,1.41,3.18A5.54,5.54,0,0,0,184,19.86c1.18,1.36,1.69,1.45,5.8,1.06,2.45-.24,6.79-.58,7.62-.75,2-.4,2,1.44-.08,5.55-1.41,2.84-3.6,13.73-2.9,14.43.36.36-3.26,10-4.44,11.85a13.38,13.38,0,0,0-1.28,4.3l-1,7.05a25.56,25.56,0,0,1-1,4.73,16.14,16.14,0,0,0-.76,3.77,25.3,25.3,0,0,1-1,4.87c-.57,1.52-.46,1.91.86,2.94.86.68,2,1.62,2.71,2.17,1.66,1.36,10,2.93,15.56,2.93,4.63,0,4.78-.05,5.16-1.82.22-1,.52-2.22.67-2.71a10.2,10.2,0,0,0-.42-3.48c-.73-2.76-2.56-3.78-5.41-3a15,15,0,0,1-4.37,0l-2.91-.4.33-3.14a16.15,16.15,0,0,1,1.06-4.51,14.41,14.41,0,0,0,.73-5c0-2,.3-3.82.66-4a2.58,2.58,0,0,0,.66-1.89,3.83,3.83,0,0,1,.76-2.25c.42-.42,1-2.48,1.36-4.6s.71-4.62.86-5.59a24.82,24.82,0,0,1,2.05-5.3,18.76,18.76,0,0,0,2-7.84c.13-2.4.41-6.36.63-8.94.73-8.66-1-10.25-11.45-10.57-3.91-.12-10.16-.08-11.86.08Zm-29.94,2.42a5,5,0,0,0-1.43,2.51,2.64,2.64,0,0,1-.59,1.59c-.7.7-.72,1.39-.41,17.87.12,6.23-.08,12-.43,12.91-.86,2.23-.84,7.81.05,11.06a64.31,64.31,0,0,1,1,10.19c.27,8.54.48,9.3,2.94,10.58a10.07,10.07,0,0,1,2.12,1.37,16.86,16.86,0,0,0,2.84,1.82c1.89,1,3.68,1.39,7.12,1.39,2.65,0,4.6-.28,4.6-.66s.43-.67,1-.67a3.41,3.41,0,0,0,2.05-1c.88-.86.92-1.79.26-6.82-.49-3.77-.54-6.4-.13-7.48.62-1.65,1.81-11.54,1.55-13-.09-.51,1.16-.63,4.08-.4,3.5.28,4.27.15,4.63-.79.45-1.19-.56-3.46-2.22-5a7,7,0,0,1-1.49-2.09c-.61-1.57-3.94-1.52-9.23.14A31.49,31.49,0,0,1,167.74,47c-.59,0-1.39.73-1.81,1.66-.9,2-1,8.74-.18,9.05s.9,2.07.81,8c-.07,4-.22,4.44-1.4,4.44-.73,0-1.33-.3-1.33-.66s-.43-.66-1-.66c-.78,0-.9-1.1-.66-6.13.17-3.37.43-7.53.6-9.26.18-1.92,0-3.15-.43-3.15-.76,0-.48-2.45.83-7.41.7-2.64.65-4-.34-9.2a32.89,32.89,0,0,1-.72-9.8c.23-2.05.46-4.09.5-4.57.07-.86,3.81-1.18,3.91-.33,0,.29.1,4.9.14,10.2.11,11.45.29,11.84,5.41,11.84,4.16,0,4.24-.13,4.6-7.41.12-2.64.43-7.68.66-11.12.39-5.69.3-6.49-.93-8.44-.75-1.19-1.8-2.15-2.35-2.15s-1-.31-1-.66-3.27-.67-8.5-.67c-8,0-8.59.09-9.93,1.53ZM59.45,13.37c.54-.67,1.49-.75,3.74-.33a53.38,53.38,0,0,0,8.7.4c5.36-.16,5.79-.07,7.38,1.52,1.38,1.38,1.77,2.58,2.15,6.62a50.34,50.34,0,0,1,0,9c-.56,4.7-.81,11.25-1.29,33.95-.29,14-.46,16-1.46,16.72a3.17,3.17,0,0,1-2.45.43,80,80,0,0,0-9.73-.5c-2.93,0-5.58-.12-7.18-.23-.92-.06-1.72-1.33-1.77-3.1-.39-12.34,0-59.88.69-62a9,9,0,0,1,1.25-2.55ZM71.27,24a3.64,3.64,0,0,0-2-1.65c-2.55-.63-3,2.9-3,25,0,11.32.21,21.35.5,22.38.4,1.39.89,1.8,2,1.65,1.27-.17,1.52-.73,1.91-4.17.86-7.68,1.38-41.87.65-43.22Z"/></svg>