<svg xmlns="http://www.w3.org/2000/svg" viewBox="0 0 60.68 84.52"><defs><style>.a{fill:#cccc64;}</style></defs><path class="a" d="M55.59,18.1c0-.12-.07-.24-.1-.34a.91.91,0,0,1-.22.12C55.28,18.05,55.47,18,55.59,18.1Z"/><path class="a" d="M56.33,20.3l-.15-.4L56.1,20A.45.45,0,0,0,56.33,20.3Z"/><path class="a" d="M60.68,68.77c0-.29,0-.59,0-.89l-.07,0a.2.2,0,0,1,.07-.12V67.4l-.23-.05c0-.09.1-.15.23-.16,0-.51,0-1,0-1.56,0-.73-.07-1.65-.17-2.7,0,0-.1,0-.22-.18.08-.17.14-.16.19-.1-.38-3.94-1.15-9.6-1-14.14.32-7.67-1.17-12.79-1.33-17.6-.2-6.16-.32-7-1.32-9.31-.1-.23-.2-.48-.3-.74l0,.05c-.36-.19-.55-.55-1-.69.06-.26.54-.1.42-.55-.44,0-.61.32-.55.83-.49-.07-.55-.56-1.11-.55a1.32,1.32,0,0,1,.55-1.24,5.51,5.51,0,0,1-3.44,0,1.4,1.4,0,0,1,1.1-.28,8,8,0,0,0-.83-.55,8.84,8.84,0,0,0,.69-4.28,4.7,4.7,0,0,0,1.42-1,8.09,8.09,0,0,0-4-3.71C48,8.15,46.55,6.06,44.61,4.21a18.14,18.14,0,0,0-1.89-1.59V4.16c-.35,0-.11-.59-.32-.73a3.69,3.69,0,0,1-1.15,0c0-.25.19-.23.11-.52,0-.09-.11-.11-.11-.21-.5-.12-.44.32-.94.21.41-.21.07-.43-.1-.63-.35.32-.88.45-1,1.05-1.1-.22-1.38.55-2.3.73.06-1.2.92-1.35,1.68-2-.35-.38-.83,0-1-.1.33-.44-.35-.61.1-.84-.57-.16-1,.1-1.36-.32-.09,0-.18.1-.21.21a.11.11,0,0,0,.21,0c0,.53,0,1.45-.94,1.26A2,2,0,0,1,35.18.92c-.07.48-.48,0-.42.52a3,3,0,0,0-1-.1c.16-.34,0-.46,0-.84-.48.47,0-.27-.63,0C33,.22,33.3.29,33.3.08,33,0,33.17.44,32.78.29c.47,1.08-.7.24-1,.11A.35.35,0,0,1,32,0,21.08,21.08,0,0,0,25.3,2.39l.15.1c-.1.58-.34.3-.73.21-.19.09-.19.37-.32.52A1.18,1.18,0,0,0,24,3.08c-.92.53-1.69,1-2.22,1.34a6.16,6.16,0,0,0-.57.4.51.51,0,0,1-.41.31c-.56.44-1.21,1-1.93,1.46a.32.32,0,0,1-.23.15,10.31,10.31,0,0,1-1.45.81,1.37,1.37,0,0,0-.15.38c-.2-.2-.19.06-.53,0a.2.2,0,0,0,0-.13,3.77,3.77,0,0,1-3.14-.21,9.82,9.82,0,0,0-1.63-.88c-.21.41-.82.16-.87-.28A4,4,0,0,0,9.3,6.34c-4.84.85-5.16,12.8-5.16,19.26,0,4.58-1.35,3.94-1.52,10,.77-.06,1.56-.33,2.4-.36,1.22.86,4,2.49,2.21,4.56-1-.49-1.55-1.28-2.9-2.21-1,.78-.07,1.25.42,1.93a1.17,1.17,0,0,1-.83.14,1.69,1.69,0,0,0-1.34-1.06c0,.37,0,.74-.05,1.1.18.19.3.35,0,.51.48.19.65-.62,1-.14-.69-.13-.37.74-1,.69,0-.23,0-.31-.06-.34,0,.21,0,.41,0,.61a1.9,1.9,0,0,1,.51.15,3.68,3.68,0,0,1-.77,2.53c-.11,1-.24,1.94-.37,2.94a2.6,2.6,0,0,0,1.14.6,1.12,1.12,0,0,1-1.23.09c0,.21-.05.42-.08.64.24.12.32.7.62.78,1.22-1.61,2.51,1.34.28-.13.15.43.09.38-.28.55-.21-.12-.52-.15-.75-.25A124.7,124.7,0,0,0,.45,61.79C.15,72,0,77,0,79.44c.12,0,.24.18,0,.16v.7a1,1,0,0,0,.05.29c.1-.18.41.15.06.11.41.84,2.08,1.55,4.3,2.12a1.41,1.41,0,0,0-.52-.61c.53-.15.49.49.82.14.07-.65,0-.77.69-1-.49.09-.78,0-.82-.41-.1-.64.49-.61.55-1.11-1.47-.27-.6-1.58-.42-2.2a1.62,1.62,0,0,0,.3,0l0,0,0,0c.57,0,.93-.43,1.5,0-.39.77.22,1.87-.56,2.07,0-.29-.22-.59-.69-.28a1.8,1.8,0,0,1,.42,3.17c0,.43.4-.35.41.14a.6.6,0,0,1-.25.39,59.83,59.83,0,0,0,13.37,1.24c1.71-.19,3.95-.16,6.2-.19a.36.36,0,0,0,0-.11h.12s0-.06,0-.1a1.46,1.46,0,0,0-.11-.3.17.17,0,0,1,0-.17c.05,0,0-.17-.19-.56A1.56,1.56,0,0,1,25,82.4s0-.09-.07-.15-.1-.1-.06-.15a.08.08,0,0,0,0-.11.06.06,0,0,1,0-.09s0-.06-.07-.1-.12,0-.06-.11a.13.13,0,0,0,0-.13.29.29,0,0,1,0-.17,2,2,0,0,0-.16-.85l-.07-.16s-.1-.21-.18-.36-.2-.41-.28-.58-.19-.34-.29-.38a.43.43,0,0,1-.21-.21c0-.09-.1-.15-.13-.14a.06.06,0,0,1-.08,0,.4.4,0,0,0-.21-.11,1,1,0,0,1-.36-.19c-.1-.09-.23-.15-.29-.13a.15.15,0,0,1-.15-.08.42.42,0,0,0-.19-.15,1.39,1.39,0,0,1-.28-.19,2.2,2.2,0,0,0-.39-.25,1.29,1.29,0,0,1-.29-.19,1,1,0,0,0-.22-.13,1,1,0,0,1-.33-.25.48.48,0,0,0-.4-.2c-.16,0-.27-.06-.3-.13s-.42-.27-.48-.21,0,0-.06,0a1.36,1.36,0,0,0-.45-.22l-.23-.09,0,0c-.1.31-.78.07-.69-.27a.22.22,0,0,1,.11,0l0,0a.9.9,0,0,0-.33-.17,1,1,0,0,1-.42-.28.25.25,0,0,0-.18-.13c.05.09,0,.2-.1.35-.36-.19-.56-.55-1-.69,0,0,0,0,.05-.06l-.11-.06-.07.07a1.16,1.16,0,0,0,0,.33A.78.78,0,0,1,15.7,75l-.08,0a.5.5,0,0,1-.57-.41.5.5,0,0,0-.13,0c0-.07,0-.11,0-.17a.78.78,0,0,0-.16-.15,2,2,0,0,1-.67-.67A4.85,4.85,0,0,1,12,73.38a1.39,1.39,0,0,1,1.11-.27c-.3-.16-.5-.42-.83-.56a8.74,8.74,0,0,0,.62-2.21l-.06-.15c0-.15-.09-.22-.11-.18s-.14-.18-.09-.29,0-.09,0-.07-.07,0,0-.09a2.75,2.75,0,0,0-.33-.92c-.36-.81-.43-1.14-.3-1.33a1.64,1.64,0,0,0-.13-1,1.85,1.85,0,0,1-.13-.46,2.86,2.86,0,0,0-.21-.65c-.27-.6-.33-.79-.31-.91s0-.08,0-.06-.05,0-.06-.07a.39.39,0,0,0-.14-.23c-.08-.09-.11-.15-.07-.16s0-.15-.1-.31a.94.94,0,0,1-.12-.39.66.66,0,0,0-.07-.29c-.05-.1-.07-.19,0-.19s0,0,0-.12-.09-.14-.13-.15-.07,0-.05-.13,0-.1,0,0-.06,0-.08,0a.12.12,0,0,1,0-.11.07.07,0,0,0,0-.09s0-.08,0-.13a.65.65,0,0,0-.06-.26.56.56,0,0,1-.06-.21A1.35,1.35,0,0,0,10,61a1.74,1.74,0,0,1-.18-.53.92.92,0,0,0-.07-.28.16.16,0,0,1,0-.15,1,1,0,0,0-.21-.58.68.68,0,0,1-.09-.35.81.81,0,0,0-.14-.48c-.07-.09-.13-.19-.12-.21a1.34,1.34,0,0,0-.32-.68c-.08,0-.14-.11-.13-.14s0-.06-.07-.06,0,0,0,0,.08-.15,0-.16a.31.31,0,0,1-.14-.17A.43.43,0,0,0,8.27,57c-.1,0-.1-.07,0-.29a.84.84,0,0,0,0-.47c0-.13,0-.24,0-.25s0-.24-.09-.35A.43.43,0,0,1,8,55.32a1.88,1.88,0,0,0-.32-.76.57.57,0,0,1-.11-.46.34.34,0,0,0,0-.2.15.15,0,0,1,0-.14.25.25,0,0,0,0-.21c-.05-.11,0-.14,0-.15a.11.11,0,0,0,.11-.14c0-.14.24-.38.45-.39a2.06,2.06,0,0,0,.32-.07.57.57,0,0,1,.25,0c.05,0,.07,0,.06,0s.18-.21.33-.14.2,0,.71-.19a2.5,2.5,0,0,1,.67-.25.3.3,0,0,0,.19-.08.83.83,0,0,1,.18-.13c.07,0,.09-.09,0-.15s0-.09,0-.08.05,0,0,0a2.88,2.88,0,0,1,1-.4.85.85,0,0,0,.25,0c.23,0,.27,0,.5.43a4.7,4.7,0,0,0,.58.85l.83,1a3,3,0,0,0,.4.41,2.65,2.65,0,0,1,.72.92,3,3,0,0,0,.4.56,2.93,2.93,0,0,1,.59.77,1.3,1.3,0,0,0,.28.32,1.25,1.25,0,0,1,.26.27A8,8,0,0,0,17.81,58a1.44,1.44,0,0,1,.25.33,1.84,1.84,0,0,0,.26.38c.21.24.38.45.69.87a10.08,10.08,0,0,0,.65.78,3.69,3.69,0,0,1,.31.4.65.65,0,0,0,.18.21,1.5,1.5,0,0,1,.32.39c.13.19.29.39.35.46a3.72,3.72,0,0,1,.32.5,2.82,2.82,0,0,0,.28.43.92.92,0,0,1,.12.16,2.14,2.14,0,0,0,.51.59c.38.32.43.36.48.34s0,0,.07.05.17.11.71-.21a2.19,2.19,0,0,1,.68-.32c.15,0,.17,0,.17-.19a.42.42,0,0,0-.18-.34.89.89,0,0,1-.25-.42c-.07-.23-.09-.26-.21-.24s-.2,0-.13-.12a.13.13,0,0,0,0-.14.2.2,0,0,1,0-.17.35.35,0,0,0-.08-.25c-.11-.15-.24-.35-.3-.45s-.07,0-.12,0-.08,0,0-.11,0-.17-.05-.2-.09-.07-.05-.11a.2.2,0,0,0-.05-.18c-.05-.07-.06-.13,0-.16s0-.07-.06-.12a.71.71,0,0,1-.24-.34,1,1,0,0,0-.25-.36,1.31,1.31,0,0,1-.29-.36l-.25-.4c-.05-.08-.21-.37-.35-.64a1.62,1.62,0,0,0-.35-.55s-.08-.07-.07-.1a2.21,2.21,0,0,0-.34-.69.58.58,0,0,1-.13-.23c0-.1-.08-.17-.1-.14s-.06,0-.09,0,0-.11,0-.13,0-.09-.07-.21a8.36,8.36,0,0,1-.67-1.36,2.25,2.25,0,0,0-.44-1.06c-.17-.14-.18-.19-.3-.81a5.45,5.45,0,0,0-.27-.71,3.16,3.16,0,0,1-.23-.66A.86.86,0,0,0,18,51a1.69,1.69,0,0,1-.25-.79,2,2,0,0,0-.31-.72.75.75,0,0,1-.08-.31c0-.2-.07-.28-.16-.35a.61.61,0,0,1-.18-.24c0-.08-.08-.14-.11-.13s-.19-.22-.13-.29a.24.24,0,0,0-.05-.16.34.34,0,0,1-.05-.21,2.76,2.76,0,0,0-.3-1.12,2.52,2.52,0,0,1-.16-.5,6.64,6.64,0,0,0-.37-1c-.21-.5-.44-1.07-.52-1.27a16.37,16.37,0,0,0-.8-1.78,2.4,2.4,0,0,0-.24-.31,6.55,6.55,0,0,1-.41-.6c-.37-.59-.4-.63-.55-.66s-.1,0-.06-.06,0-.1,0-.21-.08-.2-.06-.21,0-.08,0-.15-.08-.13-.11-.12-.09-.11-.16-.27a2.22,2.22,0,0,0-.56-1,.49.49,0,0,1-.17-.3,2.69,2.69,0,0,0-.48-.93,7.66,7.66,0,0,1-.53-1.06c-.24-.54-.48-1.07-.54-1.19l-.54-1.15c-.24-.52-.47-1-.49-1A11.86,11.86,0,0,1,9,31.56a10.69,10.69,0,0,0-.74-1.19A2.79,2.79,0,0,1,8,30a2.61,2.61,0,0,1-.2-.8.31.31,0,0,0,0-.18.88.88,0,0,1-.07-.23.3.3,0,0,0-.19-.17A.67.67,0,0,1,7.15,28,1.84,1.84,0,0,0,7,27.4c-.16-.36-.21-.67-.12-.71s0-.1-.07-.2-.1-.19-.05-.27,0-.1,0-.1-.21-.36-.18-.55a.47.47,0,0,0,0-.24c0-.06,0-.15.19-.28A1.66,1.66,0,0,0,7,24.78a.45.45,0,0,1,.19-.16.85.85,0,0,0,.27-.31,1,1,0,0,1,.19-.26.22.22,0,0,0,.06-.12.76.76,0,0,1,.32-.27c.19-.11.3-.21.31-.28s.25-.21.34-.19l.18-.05.25-.08a2.16,2.16,0,0,0,.71-.52.75.75,0,0,1,.43-.29,1.49,1.49,0,0,0,.71-.37,1.53,1.53,0,0,1,.42-.22,1,1,0,0,0,.34-.18s.09-.05.19-.05a2,2,0,0,0,.34,0,1.16,1.16,0,0,1,.87.33,10.34,10.34,0,0,1,1.37,2.74,3.17,3.17,0,0,1,.19.84,1.23,1.23,0,0,0,.1.46,1,1,0,0,1,.08.45c-.05.16,0,.46.28,1.09a6.15,6.15,0,0,1,.42,1.22c0,.12.05.23.08.23a9.41,9.41,0,0,1,.46,1c.62,1.44.63,1.45,1.69,3.7a14.17,14.17,0,0,0,1.9,3.36c.16.22.33.46.37.54a.71.71,0,0,0,.18.23.8.8,0,0,1,.18.28,3,3,0,0,0,.19.36,11.34,11.34,0,0,1,.83,1.48c.24.48.67,1.37,1,2a12.08,12.08,0,0,0,.71,1.37c.1.13.37.56.59.93a14.43,14.43,0,0,0,1,1.51c.21.29.43.62.5.74a2.44,2.44,0,0,0,.65.67,1.39,1.39,0,0,1,.29.39l.18.32s0,0,.05-.07a.55.55,0,0,0-.05-.33,1,1,0,0,1-.06-.41.63.63,0,0,0,0-.23.43.43,0,0,1,0-.12,2.67,2.67,0,0,0,0-.41,2.29,2.29,0,0,1,0-.41,1.14,1.14,0,0,0,0-.28.88.88,0,0,1,0-.3.67.67,0,0,0-.05-.31,1.46,1.46,0,0,1-.06-.54,1.47,1.47,0,0,0,0-.41,1.85,1.85,0,0,1,0-.47,1.63,1.63,0,0,0-.06-.56,1.63,1.63,0,0,1-.13-.69.36.36,0,0,0,0-.19c0-.07,0-.15,0-.16s0-.06,0-.11-.05-.11,0-.13a.05.05,0,0,0,0-.09.17.17,0,0,1,0-.13.46.46,0,0,0,0-.25,2.61,2.61,0,0,1-.06-.33,1,1,0,0,0-.12-.33.31.31,0,0,1-.05-.26,1.21,1.21,0,0,0-.09-.74,1.82,1.82,0,0,1-.15-1,.88.88,0,0,0,0-.27.7.7,0,0,1,0-.29,1.77,1.77,0,0,0-.14-.8.07.07,0,0,1,0-.1.5.5,0,0,0,0-.27c0-.11-.06-.21,0-.22s0-.39-.06-.4-.11-.1,0-.25.09-.14,0-.11-.15,0-.12-.1.06,0,.11,0,.08,0,.05-.05a.08.08,0,0,0-.11,0s-.08,0-.09,0,0-.21.1-.24a1,1,0,0,0,.17-.45s-.07,0-.14-.06-.13,0-.05-.11a.64.64,0,0,0,0-.38c0-.16,0-.31,0-.32a.4.4,0,0,0,0-.26c0-.12,0-.24,0-.25s0,0,0-.06a.11.11,0,0,1,0-.13.3.3,0,0,0,0-.18.08.08,0,0,1,0-.12c.05,0,.06-.05,0-.08s0-.05,0-.06a.06.06,0,0,0,0-.08,0,0,0,0,0-.07,0s0,0,0,0,0-.09-.07-.07-.07,0-.09-.06,0-.08.06-.08.08-.22-.09-.49-.1-.19,0-.19.08,0,.07-.06,0,0-.08,0-.09-.06,0-.18a.35.35,0,0,0,.05-.33c0-.11,0-.22,0-.23s0-.1,0-.2a4,4,0,0,1-.09-.47,7.82,7.82,0,0,0-.15-.94.88.88,0,0,1,0-.49s0,0,0-.06a1,1,0,0,1-.06-.53c0-.07,0-.14,0-.15a2.17,2.17,0,0,1-.07-.85.26.26,0,0,0,0-.17.12.12,0,0,1,0-.11.17.17,0,0,0,0-.16,1.5,1.5,0,0,1,0-.55c0-.1,0-.17,0-.17s0-.06,0-.15a3.42,3.42,0,0,0-.18-.75,1.07,1.07,0,0,1,0-.43.59.59,0,0,0,0-.3,1.6,1.6,0,0,1,0-.53,2.54,2.54,0,0,0,0-.65,1.13,1.13,0,0,1,0-.32.38.38,0,0,0,0-.21.85.85,0,0,1,0-.31.29.29,0,0,0,0-.25,1.91,1.91,0,0,1-.09-.76s0-.14-.07-.22a.56.56,0,0,1-.1-.26c0-.66,0-1.16,0-1.82a.49.49,0,0,0-.07-.34,1,1,0,0,1-.06-.46,2.42,2.42,0,0,0,0-.58,1.41,1.41,0,0,1,0-.5,1.05,1.05,0,0,0,0-.35.06.06,0,0,1,0-.09s.05,0,0-.06a.52.52,0,0,1,0-.25,1.5,1.5,0,0,0,0-.38,2.06,2.06,0,0,1-.07-.66.73.73,0,0,0,0-.27.4.4,0,0,1,0-.26.17.17,0,0,0,0-.18.46.46,0,0,1,0-.26.61.61,0,0,0,0-.27.71.71,0,0,1,0-.3,1.47,1.47,0,0,0,0-.36,1.32,1.32,0,0,1-.05-.31,2.41,2.41,0,0,0-.07-.54,3,3,0,0,1-.05-.59.84.84,0,0,0-.06-.39,2,2,0,0,1-.2-.78c0-.08,0-.15,0-.14s0-.1,0-.24a2,2,0,0,0,0-.4.7.7,0,0,1,.11-.34.53.53,0,0,0,.11-.25s0,0,.05,0,.06,0,.05-.05.39-.35.5-.37A.63.63,0,0,0,24,8.88c.17-.2.25-.25.39-.25a.39.39,0,0,0,.22-.15.88.88,0,0,1,.29-.2.2.2,0,0,1,.18-.12.23.23,0,0,0,.07-.08.15.15,0,0,1,.15-.1,7.31,7.31,0,0,0,1.13-.41,7.8,7.8,0,0,0,1.47-.67c.2-.11.36-.18.39-.15s.16,0,.29-.1.24-.12.25-.08a.08.08,0,0,0,.1,0,3.15,3.15,0,0,1,.54,0h.07c.12-.26.37-.43.86-.23a3.63,3.63,0,0,0,0,.56,1.26,1.26,0,0,1,.16.15,2.31,2.31,0,0,0,.2.26,3.87,3.87,0,0,1,.52,2.06c0,.17,0,.36,0,.42a.82.82,0,0,0,.07.28c.05.1.05.17,0,.19s-.05.12,0,.23a1.73,1.73,0,0,1,.1.68,1.56,1.56,0,0,0,0,.27.49.49,0,0,1,0,.2c0,.07,0,.19,0,.26a.93.93,0,0,0,.08.32.41.41,0,0,1,0,.28.63.63,0,0,0,0,.34,3.35,3.35,0,0,1,.11.84,1,1,0,0,0,0,.28,2.74,2.74,0,0,1,.11.5s0,.25.06.43.06.52.08.76a1.11,1.11,0,0,0,.08.43s0,.06,0,.11a.88.88,0,0,0,0,.3,1.87,1.87,0,0,1,0,.4,2.48,2.48,0,0,0,0,.45.58.58,0,0,1,0,.28s0,.06,0,.11a1,1,0,0,1,0,.61.4.4,0,0,0,0,.24.33.33,0,0,1,0,.23.39.39,0,0,0,0,.22,1.78,1.78,0,0,1,0,.42,1.39,1.39,0,0,0,0,.35,1.07,1.07,0,0,1,0,.4,1.34,1.34,0,0,0,.06.48c0,.09,0,.19,0,.23s0,.17,0,.3a1.19,1.19,0,0,1,.05.38,1.27,1.27,0,0,0,0,.33,3.22,3.22,0,0,1,0,.59,1,1,0,0,0,0,.43c.05,0,.06.14.07.61a.51.51,0,0,0,.06.27.61.61,0,0,1,.06.26.41.41,0,0,0,0,.2s0,.1,0,.23a.55.55,0,0,0,0,.31.38.38,0,0,1,0,.25,1,1,0,0,0,0,.35,1.4,1.4,0,0,1,0,.29,1.2,1.2,0,0,0,0,.32,2,2,0,0,1,0,.74A.37.37,0,0,0,33,27a.77.77,0,0,1,0,.44,1.18,1.18,0,0,0-.06.46c0,.1,0,.19,0,.2s0,.1,0,.19a1.29,1.29,0,0,1,0,.34,3,3,0,0,0,0,.51c0,.19,0,.42,0,.51a.66.66,0,0,0,0,.29.22.22,0,0,1,0,.17.27.27,0,0,0,0,.19.55.55,0,0,1,0,.35,1.24,1.24,0,0,0-.07.48,12.63,12.63,0,0,1,0,1.62s0,.1,0,.15.06.11,0,.12,0,.08,0,.13,0,.14,0,.17a.2.2,0,0,0,0,.2c0,.08,0,.15,0,.17s0,.05,0,.1a.25.25,0,0,1,0,.17.79.79,0,0,0,0,.36,2.2,2.2,0,0,1,0,.44.71.71,0,0,0,0,.23,5.63,5.63,0,0,1,0,.89.78.78,0,0,0,0,.21.28.28,0,0,1,0,.2.79.79,0,0,0,0,.36,2.3,2.3,0,0,1,0,.45,1,1,0,0,0,0,.35.37.37,0,0,1,0,.16.39.39,0,0,0,0,.11,4.74,4.74,0,0,1,0,.51,5.07,5.07,0,0,0,0,1.08.68.68,0,0,1,0,.29,1.88,1.88,0,0,0,0,.56s0,.26,0,.54a6.36,6.36,0,0,0,0,1.13.53.53,0,0,1,0,.35.19.19,0,0,0,0,.15,2.81,2.81,0,0,1,0,.52,3.68,3.68,0,0,0,0,.82c0,.21.07.43.07.48,0,.59.06.68.14.71s.07.06,0,.1a.42.42,0,0,0,0,.23.48.48,0,0,1,0,.22.2.2,0,0,0,0,.15.78.78,0,0,1,0,.29.68.68,0,0,0,0,.27.35.35,0,0,1,0,.23.42.42,0,0,0,0,.25c0,.09,0,.09.1-.06a.46.46,0,0,0,0-.21,6.64,6.64,0,0,1,.18-1.07.11.11,0,0,0,0-.11s0-.09,0-.1,0,0,0,.05,0,0,0,0,0-.08,0-.09a.14.14,0,0,1,0-.14s0-.11,0-.13a.2.2,0,0,1,0-.17,1.36,1.36,0,0,0,0-.2c0-.07.08-.29.1-.24s0-.09,0-.24a.56.56,0,0,1,.05-.3,1,1,0,0,0,.16-.65c0-.26,0-.35.07-.45a.17.17,0,0,0,0-.2.82.82,0,0,1,0-.39,1.31,1.31,0,0,0,0-.31s0-.06,0-.08,0-.07,0-.12,0-.13,0-.15a3.52,3.52,0,0,0,.24-1.07c0-.12,0-.37,0-.56a1.5,1.5,0,0,0,0-.36,1.56,1.56,0,0,1,0-.33c0-.17.05-.37.05-.44s0-.13,0-.14,0-.06,0-.12,0-.12,0-.14,0-.1,0-.19a.69.69,0,0,1,0-.58,5.78,5.78,0,0,0,.19-1.16.5.5,0,0,1,0-.24.73.73,0,0,0,0-.36.46.46,0,0,1,0-.25,1.2,1.2,0,0,0,0-.36.74.74,0,0,1,.07-.37.21.21,0,0,0,0-.22,2.06,2.06,0,0,1,0-1,.28.28,0,0,0,0-.2.28.28,0,0,1,0-.18c0-.06,0-.09,0-.08s0-.14,0-.34a1.23,1.23,0,0,0,0-.42.3.3,0,0,1,0-.2.46.46,0,0,0,0-.28.42.42,0,0,1,0-.26A1.74,1.74,0,0,0,35,31a1.69,1.69,0,0,1,.08-.67A2.62,2.62,0,0,0,35.24,29a1.35,1.35,0,0,1,0-.37.33.33,0,0,0,0-.24,1.26,1.26,0,0,1,0-.67,3.57,3.57,0,0,0,.2-1.08.4.4,0,0,1,0-.22c0-.12,0-.26.09-1a.85.85,0,0,0,0-.38.24.24,0,0,1,0-.21.27.27,0,0,0,0-.23c0-.06,0-.11,0-.12a1.59,1.59,0,0,0,0-.74.67.67,0,0,1,0-.32,2,2,0,0,0,0-1,.74.74,0,0,1,0-.47.91.91,0,0,0,.15-.49,1.46,1.46,0,0,1,0-.37,1.11,1.11,0,0,0,0-.39,1.21,1.21,0,0,1,.08-.48.87.87,0,0,0,.06-.46.2.2,0,0,1,0-.19,1.09,1.09,0,0,0,.14-.64c-.07-.21-.07-.21,0-.25s.07-.14.08-.26,0-.24.05-.25,0-.08,0-.14a.73.73,0,0,1,0-.34,1.22,1.22,0,0,0,0-.34.29.29,0,0,1,0-.18.31.31,0,0,0,0-.17.5.5,0,0,1,0-.33,1.56,1.56,0,0,0,.11-.41c0-.11,0-.23.09-.24a.32.32,0,0,0,.12-.17c.06-.15.48-.45.59-.41s.09,0,.12-.08.06-.08.14,0a.3.3,0,0,0,.21,0l.48-.17c.66-.25.94-.31,1.06-.24a2.68,2.68,0,0,0,.68-.18,2.55,2.55,0,0,1,.65-.17s.09,0,.18,0a1,1,0,0,1,1,.35c0,.08.14.23.21.32a1.63,1.63,0,0,1,.35.81c.12.54.25.88.35.9s0,0,0,.06-.07.13-.08.3c0,0,0,0,.09,0v.31a.17.17,0,0,0-.08.06c0,.05,0,.09,0,.15a1.36,1.36,0,0,1,0,.34s0,.06,0,.08,0,0,.06,0V19h-.07c0,.11,0,.22,0,.32s0,.4,0,.46c0,.25,0,1.57,0,1.71a1.34,1.34,0,0,1,0,.38,2,2,0,0,0,0,.56,4.71,4.71,0,0,1-.06.86,3.77,3.77,0,0,0-.07.66c0,.08,0,.15,0,.16a.24.24,0,0,0,0,.17,4.64,4.64,0,0,1-.21,1.16c0,.09,0,.11.06.12s.09,0,0,.06a.25.25,0,0,0-.11.15c0,.1,0,.1,0,0s.08-.07,0,.1,0,.18-.09.18-.05,0,0,0a2.46,2.46,0,0,1-.13,1,.17.17,0,0,0,0,.17,1.41,1.41,0,0,1-.05.49.13.13,0,0,1,0,.06l.13-.05a.63.63,0,0,1-.17.29c0,.12,0,.24,0,.31s0,.22-.05.23,0,.06,0,.11a7.79,7.79,0,0,1-.21,1.67.24.24,0,0,0,0,.15,3.05,3.05,0,0,1,0,.42,2.7,2.7,0,0,0,0,.47.43.43,0,0,1-.05.21.18.18,0,0,0,0,.21c0,.05,0,.1,0,.12a.72.72,0,0,0-.15.48c0,.24,0,.45.07.34s0-.08.07-.06,0,.1-.07.18-.12.17-.1.21a.32.32,0,0,1,0,.19.26.26,0,0,0,0,.21c0,.07,0,.12,0,.14a.26.26,0,0,0-.1.14c0,.08,0,.11.1.15s.13.05.09.18-.06.11-.1,0-.08-.11-.11-.1,0,0,0,.07a.48.48,0,0,1,0,.43,1.14,1.14,0,0,0,0,.34.68.68,0,0,1,0,.27.2.2,0,0,0,0,.21s0,.07,0,.08a.05.05,0,0,0-.05.07,2.12,2.12,0,0,1,0,.62,1,1,0,0,0,0,.33c0,.15,0,.29-.07.3s0,0,0,.06,0,.13,0,.23,0,.18,0,.17,0,0,0,.13,0,.13-.07.12,0,0,0,.09.11.29,0,.29-.07,0,0,.09a.32.32,0,0,1,0,.26,4.5,4.5,0,0,0-.06,1.3,1,1,0,0,1,0,.28c0,.39,0,.53,0,.55s0,.12,0,.23a1.54,1.54,0,0,0,0,.32c0,.15,0,.25-.22.31s-.16.09-.16.35a3.23,3.23,0,0,1,0,.48c0,.24,0,.41.09.47s.09,0,.13-.14a.5.5,0,0,1,.1-.22,4.18,4.18,0,0,0,.43-1c.09-.21.2-.47.26-.59a1.75,1.75,0,0,0,.12-.37.3.3,0,0,1,.08-.18s.09-.09.13-.18a.56.56,0,0,1,.12-.19s.05-.06,0-.11a.16.16,0,0,1,.07-.13.53.53,0,0,0,.16-.29,1.06,1.06,0,0,1,.15-.32.78.78,0,0,0,.08-.35c0-.2,0-.28.14-.32a1.56,1.56,0,0,0,.53-1,.43.43,0,0,1,.06-.21,1.58,1.58,0,0,0,.27-.68.76.76,0,0,1,.16-.35c.08-.07.12-.17.1-.21s0-.1,0-.11a.17.17,0,0,0,.05-.14.45.45,0,0,1,0-.22c0-.06,0-.08,0,0s-.07,0-.08,0,0-.08.08-.11.1-.07.09-.1,0,0,.07-.06.08,0,.05-.09a.34.34,0,0,1,.07-.25,1.76,1.76,0,0,0,.14-.26.31.31,0,0,1,.09-.12.08.08,0,0,0,0-.1.31.31,0,0,1,.08-.23,3.79,3.79,0,0,0,.29-.58,5.54,5.54,0,0,1,.26-.56,2.21,2.21,0,0,0,.12-.27,3,3,0,0,1,.32-.74c.08-.14.18-.36.24-.48s.12-.24.16-.25a.34.34,0,0,0,.09-.24c0-.11,0-.21.07-.22a2,2,0,0,0,.27-.7.52.52,0,0,1,.28-.4,4.82,4.82,0,0,0,.34-.94s0-.09.06-.15a.38.38,0,0,0,0-.26c0-.08,0-.16,0-.17a2.29,2.29,0,0,0,.17-.48,3.1,3.1,0,0,1,.24-.63.43.43,0,0,0,.09-.22.51.51,0,0,1,0-.25,1,1,0,0,0,0-.35.35.35,0,0,1,.05-.27.26.26,0,0,0,.06-.16.47.47,0,0,1,.12-.38,1.52,1.52,0,0,0,.19-.83l0-.27a.84.84,0,0,0-.05-.17s0-.07.07-.08a.12.12,0,0,0,.1-.13.41.41,0,0,1,.15-.22.86.86,0,0,0,.24-.35.83.83,0,0,1,.2-.29.54.54,0,0,0,.2-.25c.13-.28.38-.46.51-.37a.16.16,0,0,0,.16,0s.11,0,.14.08A3.23,3.23,0,0,0,50,23a4.72,4.72,0,0,0,.48.54l.23.22a.72.72,0,0,0,.13.14l.22.21c.06.06.13.1.16.09s.08,0,.11.1a.33.33,0,0,0,.16.15.5.5,0,0,1,.14.1,6.74,6.74,0,0,0,.61.74.38.38,0,0,1,.1.09.14.14,0,0,0,.1.07c.08,0,.17.18.12.25s0,.1.08.17a2.24,2.24,0,0,1,.26.36.78.78,0,0,0,.3.3.29.29,0,0,1,.17.19.25.25,0,0,0,.13.18c.09.05.09.09,0,.22a.86.86,0,0,0,0,.39c.05.2,0,.27-.11.3s0,.06,0,.11a.18.18,0,0,1-.06.13,2.49,2.49,0,0,0-.29.63c-.12.33-.28.73-.36.89a8.26,8.26,0,0,0-.58,1.65.91.91,0,0,1-.06.25,1.59,1.59,0,0,0-.1.39,6.13,6.13,0,0,1-.22.79,5.54,5.54,0,0,0-.37,1.28s-.8,2.41-1,2.77A7.87,7.87,0,0,0,50,38c-.09.38-.33,1.14-.55,1.75-.09.23-.13.44-.09.46s0,0,0,0a9.59,9.59,0,0,0-1,2.18,7.27,7.27,0,0,1-.37.91.68.68,0,0,0-.12.29,3.42,3.42,0,0,1-.37,1,12.93,12.93,0,0,0-.63,1.64s-.09.36-.21.78a5.8,5.8,0,0,0-.24,1,6.7,6.7,0,0,1-.27.9c-.27.75-.65,1.88-.68,2s-.06.26-.1.46a6.53,6.53,0,0,1-.25.8,10.14,10.14,0,0,0-.5,1.46c-.06.25-.16.57-.21.71a.76.76,0,0,0-.08.29,3.43,3.43,0,0,1-.27.87.62.62,0,0,1-.08.18s-.12.33-.23.68a4.62,4.62,0,0,1-.49,1.26,2.6,2.6,0,0,0-.25.73,1,1,0,0,1-.14.33,24.74,24.74,0,0,0-1.34,3.64.12.12,0,0,1-.07.09s-.07.06-.06.09a.82.82,0,0,1-.11.36c-.07.16-.19.46-.25.63a1.18,1.18,0,0,1-.17.36s-.06.1-.06.2-.37,3.1-.36,3.24a.32.32,0,0,1-.05.21c-.08,0-.15.29-.14.51s0,.21-.07.23a1.18,1.18,0,0,0-.46.71,1.37,1.37,0,0,1-.06.39.43.43,0,0,0-.05.26s0,.07,0,.08a.49.49,0,0,0,0,.25c0,.13,0,.24-.06.25a1,1,0,0,0,0,.35c0,.18,0,.33,0,.34a.07.07,0,0,0,0,.09.22.22,0,0,1,0,.19.25.25,0,0,0,0,.2.33.33,0,0,1,0,.24,2.48,2.48,0,0,0-.08.5,1.93,1.93,0,0,1-.08.54.7.7,0,0,0,0,.24.41.41,0,0,1,0,.18,1.61,1.61,0,0,0,0,.82.43.43,0,0,1,0,.28c0,.06,0,.1,0,.09s0,.07,0,.18a1.1,1.1,0,0,0,0,.36c0,.09,0,.17,0,.18a1.63,1.63,0,0,0-.06.57c0,.3,0,.6,0,.68s0,.25,0,.41l-.07.52a3.29,3.29,0,0,0,0,.38.93.93,0,0,1-.05.24.12.12,0,0,0,0,.15s0,.1,0,.19a1.76,1.76,0,0,0,0,.4,3.83,3.83,0,0,1,0,.6,1.29,1.29,0,0,0,0,.41,12.1,12.1,0,0,1-.09,1.86,1.26,1.26,0,0,0,0,.42,7.62,7.62,0,0,1,0,1.19,2.35,2.35,0,0,1,0,.27l2.23-.14c1.14.23,2.54.52,4.49.82.16-.08.42-.06.39-.33.21,0,.19.19.17.41.56.08,1.15.17,1.8.25h0l.77.09a.41.41,0,0,0,.05-.09.18.18,0,0,1,.14.11l.45,0c-.06-.09-.1-.13.07-.33.31,0,.39.16.44.38l.18,0c-.07-.65.35-.82.69-1.06-.25,0-.57,0-.49-.33a1.81,1.81,0,0,0,1-1c0,.67.06.37.49.33-.44-.35.35-1.72-.49-1.81-.23.09-.17.76-1.15.33,0,1,1.12.34,1.31.49-.49,1.19-1.5.07-2.63.82.54-.08,1,.14.66.5-.8.19-.73-.48-1-.82a1.1,1.1,0,0,0,.83-.17c.16-.6-.81-.08-.5-.82.24-.09.85.19.82-.17-.55-.22-.87.09-1.15-.16,1.64-.53,1.23-.21,2.14-1.15-1.25.29-1.2-.28-1.64-1.15.36.16,1.71-1.22.82-1.32a15.63,15.63,0,0,1,1.64-.16c-.12.31-.49.11-.16.49a8.2,8.2,0,0,1,1.81.33c0,.26-.42.13-.33.49.29,0,.82-.46,1,0-.71-.08-.8,1-1.48.5.15-.29.73-.27.33-.66a1,1,0,0,0-1.15.16c1.15.08.49,1.7,1.65,1.48-.18.73-.75.21-1.15.5a5.63,5.63,0,0,1,.16,2c.36-.09.78-.39.49-.66.52,0,.54,1.06,1,.66a4.71,4.71,0,0,1,1-1.81c.27,0,.09.46.33.49.36-.23-.21-.4.16-.49.39.47-.06,1,.66.49-.19.88,0,1,.65,1.32-.06-.72.08-2.08-1-1.64.24-.7-.69-1.06-.17-1.48.33.27.27.94.66,1.15a3,3,0,0,1,.49-.66,4.63,4.63,0,0,0,.5,2.14c.65-.75,1.71.26,2.63,0-.09-.49-1.9-.69-1-1.48.58.16-.14.72.49.65,0-.37,0-.61.33-.65.17-.72-1.65-.31-1-1,.6.6.76-.36,1.89.13a.29.29,0,0,1,0-.09c-.4-.76-1.13-.62-1.42-.86.2-.61,1,.4,1.15-.17-.73-.23-1.32-.21-1.48.5-.19-.44-.2-.58-.49-.17-.22-.87.55-.76.33-1.64-.26.57-1.15,1.37-1.65,1.15a9.2,9.2,0,0,1,1.65-1.65c-1.33-.38-1.56,0-2.63-.32.2-.38.47-.73,0-1,0,.26,0,.57-.33.49-.13-1.25.88-.47.66-1.48s-.91,0-1.32-.65c0-.71.73.22,1-.33-.36,0-.95-.68-.5-1,.36.26,1.17,1.36,1.65.82-.48,2,1.85,1.91,2.46,1.48.07.89-1.12.53-1.31,1.15.93.2.62.46,1.31.5-.29.09-.68.08-.82.32.5.13.49-.28,1-.16-.41.29-.12.27-.33.66.42-.18.78.5,1,0-.58.14-.57-.25-.33-.5a.93.93,0,0,1,.74.67c.06-.49.1-1,.14-1.58a4.27,4.27,0,0,1-1.71.09c.67-.12,1.21-.45,1.73-.35,0-.13,0-.25,0-.38-.36-.1-.59,0-1.09.08a.83.83,0,0,0,.17-.5c.27.1.68,0,.93.17,0-.29,0-.58,0-.88a4.55,4.55,0,0,0-.64-.27c.12-.49.34-.31.65-.1,0-1.29.07-2.73.08-4.36C60.49,68.92,60.51,68.81,60.68,68.77ZM1.26,80ZM21,78.21c.38.53-.49.79.14,1C18.55,82.05,17,77,21,78.21Zm-5-1.1c.21.16.62.11.56.55.17-.16.28-.12.27.14a2.16,2.16,0,0,0-1-.14C15.83,77.37,16,77.29,16,77.11Zm-1.51-2.9Zm-1.11,0c.09.09-.05-.06,0,0Zm-.27,0Zm-1.38-1.1Zm-.55,1Zm-.83,1q-.45,0-.42-.42C10.08,74.77,10.46,74.67,10.37,75ZM7.89,69.66c0-.42.57.13,0,0ZM4.47,48.36c.81.2.36.83.14,1.38-.25-.26-.35.11-.83,0C3.87,49.14,4.3,48.87,4.47,48.36Zm1,1.52c.16.43.39-.08.41.41.93,0,.18-.79,1-.83.18,2-2.14,1.87-3.18,1.11C3.72,49.62,5.67,50.89,5.44,49.88Zm.93,17.85c-.66-.34.38-.71,0,0ZM3.06,61.38a.8.8,0,0,1,.55-.14c0-.48-.38-.34-.14-.82.75-.16,1,.23,1.38.41.24-.1-.26-1.09,0-1.24.33,0,.26.48.69.41C6.86,61.84,3.47,64.19,3.06,61.38Zm.14,2.21c-.6.16-.83-.4-.56-.69C2.9,63.06,3.31,63.06,3.2,63.59ZM4,59.73c0-.42.58.13,0,0ZM2.4,49.88c.08.3.68.78,1,.41.34.22-.17.74-.55.69C2.71,50.59,2.09,50.26,2.4,49.88ZM3.47,80.83Zm0-12c-.23-.45.07-.61.28-1-.87.22-1.16-.84-2.07-1,0-.62.19-1.1.83-1.1-.26-.73-.4-.57-.14-1.11a4,4,0,0,0,2.76-1.1c1.15-.07,1,.66,1.1,1.38-.85,0-.4,1.35-1.1,1.52.15.3.16.76.55.82,0,.2-.41,0-.42.28-.14-.09,0-.58-.55-.55-.13,0-.1.22-.22.26.39,0,.72,2-.19,2.22C3.92,69.39,4.14,68.67,3.47,68.83Zm2.35-3.47v0a.13.13,0,0,0,0,.06S5.82,65.38,5.82,65.36ZM5,69Zm-1.1,2.9c.08-.83,1.23.16,1-1.11.43.13.46.65.55,1.11C4.88,72.16,4.54,71.81,3.89,71.87Zm2.2,4.68c-.28-.07-.29-.21-.14-.41-.26.06-.83-.19-.69.28-.74-.38-.75-1.32-.68-1.94.28.08.29.22.13.42H5.4c-.05-.4-.47-.45-.69-.69.08-.64,1.2.09.83.27.12.33.34-.37.83-.13.11,1.39.07.73.14,2.07C6.31,76.4,6.12,76.39,6.09,76.55ZM4.71,72.42c.77-.29,1.15,0,2.07-.42C7.47,73.19,5.11,74.46,4.71,72.42ZM7,40Zm.66,17.29c-.65.15-1-.85-.14-.69A.9.9,0,0,1,7.61,57.24ZM5.88,18.92c0-.32-.63-.62-.1-.84C6.11,18.2,6.59,18.93,5.88,18.92Zm.73-7.12c.32-.28-.28.32,0,0ZM7.34,11c.32,0-.09.43,0,0ZM9.12,7.41c.2.2-.06.19,0,.52A.26.26,0,1,1,9.12,7.41ZM7.55,18.81a6.2,6.2,0,0,0,.21-.94c.58-.13.3.59.42.63A1,1,0,0,1,7.55,18.81Zm1.15-1a3.43,3.43,0,0,1-1.15-.11c-.15-.3.47-.3.32,0,.09-.22.29-.33.42-.52.24,0,.31.18.62.1C9,17.57,8.55,17.37,8.7,17.77Zm.42.73c.37.18-.34.33,0,0Zm.32-9.21c.37.18-.34.33,0,0Zm.31,9.42q-.08-.5.42-.42Q10.25,18.79,9.75,18.71ZM11.22,18c-.11-.35.14-.35.42-.32C11.67,17.94,11.49,18,11.22,18Zm.21-4.4c0-.09,0-.1.1-.1.28-.19-.15-.43.21-.53.07-.2.16.12,0,.11,0,.19.36.06.42.21C12,13.48,11.69,13.5,11.43,13.58ZM12.89,9.4v0a1,1,0,0,0,.08.14Zm.42,1.36H13.1v-.21h.21Zm.94-1.57c.29,0,.21-.18.42,0A.22.22,0,1,1,14.25,9.19Zm.63,2.72v-.53h.42C15.38,11.78,15.18,11.89,14.88,11.91Zm-.1-2.83c0-.31.49-.2.62-.42C15.7,8.88,15,9.36,14.78,9.08Zm2,.21c.09.34-.16.33-.21.52C16.32,9.74,16.5,9.22,16.76,9.29ZM16.24,11h.31c0,.13-.18.16-.21.31s-.09,0-.1-.11ZM15.82,8c.32,0-.1.43,0,0Zm1.47,3.76c.36,0,.24.42.31.53-.56.08-.77.18-1.15.21.38.2,0,.3,0,.62.38,0,.38-.31.73-.31-.21.51-1.13.79-1.25.1.19,0,.35-.06.41-.2-.17-.31-.38.23-.73.1-.23-1.71,1.15-1.44,2.51-1.36C18.19,11.94,17.64,11.77,17.29,11.8ZM19.8,7.09c.13,0-.13.56-.42.53C19.3,7.22,19.78,7.39,19.8,7.09ZM19,16.51c0-.29.26-.3.53-.31C19.41,16.41,19.21,16.48,19,16.51Zm.53-1.46c.11-.42.75-.14.62.31Zm.83-.63c-.07.48-.63-.08,0,0ZM23.25,3.85c.06.63-.1.94-.63.73A3,3,0,0,1,23.25,3.85ZM21.58,5.63c.34.15-.41.26,0,0Zm-.21-.52c.06-.25.14-.49.42-.53C22.12,4.89,21.59,5.35,21.37,5.11Zm3,2.72c-.07.48-.63-.09,0,0ZM24,5.63c.62-.36-.47.87,0,1.36a1.65,1.65,0,0,1-2.19,0c.1-.54.24-.56.1-1a3.81,3.81,0,0,0,1.05-.52c-.28-.32-.48.33-.84,0a1.61,1.61,0,0,0,.73-.63c.52.28.76-.26.84-.73a1.28,1.28,0,0,0,1.47,0C25.39,5.32,24.27,4.9,24,5.63Zm.53-1.57a1,1,0,0,1,.11-.61v0h0a.69.69,0,0,1,.82-.31C25.33,3.63,24.91,3.84,24.51,4.06Zm1.88,1.46c-.07.48-.63-.08,0,0ZM28,3c.08-.2.37-.37.53-.21C28.41,3,28.17,3.23,28,3Zm1.89-2c-.11.25-.22.49-.53.53C29.31,1.18,29.41.94,29.85,1ZM28.69,3.33c0-.22.08-.28.11-.42.19,0,.22.13.42.1C29.26,3.33,28.88,3.23,28.69,3.33Zm.42.52c-.22,0-.2-.15-.21-.31A.28.28,0,0,1,29.11,3.85Zm1.05.31c.09.23.27.36.21.74-.32,0-.36,1-1.05.83-.31-.07.1-.22,0-.42.1,0,.08.13.11.21.26,0,0-.35,0-.41-.3-.09-.27.14-.53.1-.07-.46.23-.54.53-.63,0,.15,0,.3.1.32.36-.34.1-.47,0-1,.44.09.87-.14,1,0C30.55,4.14,30.4,4.19,30.16,4.16ZM31.1,5c.17,0,.18.1.32.11C31.46,5.31,30.94,5.26,31.1,5Zm.84,1.26a.28.28,0,0,1,.21.31C31.92,6.62,32,6.42,31.94,6.26Zm.21-.32a.71.71,0,0,1,.1-1c.34-.13.08.33.42.21C32.76,5.64,32.19,5.53,32.15,5.94Zm5.65.32c.29.19-.09.6-.31.62S37.73,6.44,37.8,6.26ZM36.33,3.43c.19-.21.62-.57.84-.42C36.94,3.27,36.66,3.86,36.33,3.43Zm1.26-1.25c0,.33-.52,0-.42.41-.21,0-.13-.28-.42-.21A1,1,0,0,1,37.38,2C37.43,2.06,37.47,2.15,37.59,2.18Zm-.52-1c.09.25-.37.45-.11.53,0,.15-.52-.1-.42-.42C36.84,1.42,36.81,1.19,37.07,1.23Zm-.32.63c-.32.39-.35-.32,0,0Zm-1.36.73c.1.64.69-.17.94.11s-.29.54-.42.21c-.39.16-.36.75-.94.73,0-.12,0-.19-.1-.21C35.45,3.34,34.63,2.81,35.39,2.59Zm-1.57-.83c.08-.1.48.43.74,0-.05.37.47.92-.11,1,.13-.5-.48-.51-.73-.62C33.65,1.84,34.09,2,33.82,1.76Zm.11,2.51c.27.23-.08.67-.42.84C33.68,4.82,33.23,4.27,33.93,4.27Zm-.21,2.51c-.36,0-.46-.31-.53-.63.1,0,.19-.09.21-.21.32-.07.31.18.63.11C34.05,6.41,33.78,6.49,33.72,6.78Zm.1,4.81c.42-.61-.15-1.66.84-1.78A4.29,4.29,0,0,1,35.08,11C34.54,11.06,34.31,11.46,33.82,11.59Zm.63-5.54c-.38-.46.29-.4,0,0Zm1.36,0H35.6V5.84h.21Zm-1.25-.74c-.12-.09,0-.38-.32-.31.17-.26.66-.07.94-.42.06-.23-.2-.15-.21-.31.19-.44.81-.45,1.05-.84C36.31,4.5,35.62,5.21,34.56,5.31ZM36,5.63c.32-.29-.29.32,0,0Zm.1-1.47c-.1-.38.47-.08.42-.42.08.17.34.16.32.42C36.47,3.88,36.6,4.09,36.12,4.16Zm.8,8.2V11c.69-.14.44.67.83.69C37.27,12,37.26,11.6,36.92,12.36Zm.28-1.52c-.14-.25.41-.46,0-.55,0,.17,0,.33-.28.28V9.33A1,1,0,0,1,38,10C37.34,10.32,38.06,10.55,37.2,10.84Zm8.55,2.21c-.66-.34.39-.71,0,0Zm-.14-2.34c0,.12,0,.2,0,.26,0-.09,0-.22.06-.29ZM43.4,5.05c0-.41.58.13,0,0Zm-.68-.68v.11C42.66,4.48,42.6,4.39,42.72,4.37ZM43,6.57c-.05-.49-.38-.34-.14-.83.75-.15,1,.23,1.38.41.24-.1-.26-1.08,0-1.24.33,0,.26.48.69.42,1.16,1.6-1.3,3.61-2.2,2.2v.09A.54.54,0,0,1,42.51,7a1.28,1.28,0,0,1-.07-.28A.75.75,0,0,1,43,6.57Zm-.27,2.2v.1C42.66,8.87,42.6,8.79,42.72,8.77Zm-.32-4.4c0,.28-.14.35-.42.32C42.08,4.53,42.14,4.35,42.4,4.37Zm-.73,1.15c.09,0,.1,0,.11-.1.2,0,.15.48-.11.31Zm-.21-.21h0Zm.11.53c0,.21-.39.1-.42.31C40.85,6,41.39,5.54,41.57,5.84Zm-.21,1.78c-.09.33-.18.65-.63.62C40.81,7.91,41,7.65,41.36,7.62Zm.21,2c-.23,0-.2-.15-.21-.32A.3.3,0,0,1,41.57,9.61Zm-.42,0c.31,0-.1.43,0,0Zm-.73-4.5c.29-.32.17.23,0,.31-.18-.07-.07-.24.1-.21C40.54,5.12,40.48,5.11,40.42,5.11Zm0,5.54c.23,0-.06.62.41.42-.3.13-.5.75-.83.52C40.06,11.2,40.39,11.08,40.42,10.65Zm.31-7.53c.35.15-.41.26,0,0Zm-.11.31c.05.25-.19.23-.1.52-.4-.07-.37,0-.63-.1C40.17,3.75,40.3,3.49,40.62,3.43ZM40,3.33c-.11.24-.7,0-.63.41-.34.13-.08-.33-.42-.2C39.36,3.34,39.7,3.14,40,3.33Zm-.53,8.47V12h-.21V11.8ZM38.32,3.74c.32,0-.1.44,0,0Zm.84,1.47c0,.19-.1.22-.11.1-.12.2-.15.48-.41.53C38.43,5.66,38.75,5.12,39.16,5.21Zm-.45,8.53c-.06-.43.3-.44.69-.41C39.28,13.57,39.15,13.81,38.71,13.74Zm.76-.47c.19-.19.37-.57.53-.21C39.91,13.21,39.66,13.21,39.47,13.27Zm2.1,1.15a1,1,0,0,1,.62-.32A.6.6,0,0,1,41.57,14.42Zm1.28,11.74Zm0-12c-.23-.46.08-.61.28-1-.82.22-1.13-.72-1.94-.93-.37.32-.53.62-1.3.38.22-.3.57-.47.73-.84.15.29.26.28.46.2a1.52,1.52,0,0,1,.15-.52,1.11,1.11,0,0,1-.19-.41.51.51,0,0,0,.53-.21c-.56,0-.64-.85-.63-1,.16.12.22.34.52.32,0-.74.46-.42.73-.84,0-.39-.78,0-.73-.42.25,0,0-.29.45-.4A.51.51,0,0,1,42,8.22c.26.16.67.17.56.69a.27.27,0,0,1-.12,0l0,.05c-.57.13-.07.65.21.83v.11a5,5,0,0,0,1.79-1c1.15-.07,1,.66,1.1,1.38-.85,0-.4,1.35-1.1,1.52.15.31.16.76.55.83,0,.2-.41,0-.41.27-.15-.08,0-.57-.56-.55-.13,0-.1.22-.22.27.39,0,.72,2-.19,2.22C43.3,14.72,43.52,14,42.85,14.16Zm2.35-3.48v0a.11.11,0,0,0,0,0S45.2,10.71,45.2,10.68Zm-1,5.41c.43.12.46.64.55,1.1-.52.29-.86-.05-1.51,0C43.35,16.36,44.5,17.35,44.23,16.09Zm.14-1.8Zm1,10.76c0-.28-.23-.58-.69-.27A1.8,1.8,0,0,1,45.06,28c0,.43.4-.35.41.14,0,.28-.27.36-.41.55.22.23.63-.18.69.41-.35.56-1-.68-1,0,.17,0,.33,0,.28.28h-.83c-.34-.64-.25-1.32-1-1.8.53-.15.49.49.82.14.07-.64,0-.76.69-1-.49.08-.77-.05-.82-.42-.1-.64.49-.61.55-1.1-1.47-.27-.6-1.59-.42-2.21a1.06,1.06,0,0,0,.3,0l0,0,0,0c.57,0,.93-.42,1.5,0C45.5,23.76,46.11,24.86,45.34,25.05Zm.13-3.17c-.28-.08-.29-.22-.13-.41-.27.06-.84-.19-.69.27-.75-.37-.76-1.32-.69-1.93.28.08.29.22.13.41h.69c-.05-.4-.47-.44-.69-.69.08-.63,1.2.09.83.28.12.33.34-.38.83-.14.11,1.4.07.74.14,2.07C45.69,21.73,45.5,21.72,45.47,21.88Zm-1.38-4.14c.77-.29,1.15,0,2.07-.41C46.85,18.52,44.49,19.79,44.09,17.74ZM47.27,15c0-.41.57.13,0,0Zm2.07,5c.12.15.51,0,.41.41C49.45,20.39,49.31,20.25,49.34,20Zm1.24-.55Zm.55-1Zm1.38,1.1c.09.1-.06-.05,0,0Zm.27,0c.09.1-.05-.05,0,0Zm-9.44,61c0-.5.68.15,0,0Zm.16,2.13c-.53-.06-.74-.45-1.31-.49.11-.29.7-.92.49-1C42.5,80.8,44.33,81.81,43.5,82.64Zm.33,1c0-.49.69.16,0,0Zm.83-1.15c-.13-.26-.52-.25-.5-.66C44.4,82,44.8,82,44.66,82.48Zm0-1.15c.75.11-.14,1,0,0Zm1,.66c-.36.5-1-.2,0,0Zm.18-.62v.12C45.71,82.2,45.8,81.53,45.82,81.37Zm-.34-1c.19-.5.87.18,0,0ZM45.81,79c.5-.45-.45.5,0,0Zm6.57,1.64c.72.07-.17,1,0,0Zm4.93-4.11c0,.36-.58.07-.82.16C56.51,76.31,57.11,76.34,57.31,76.56Zm-.82.49c.41-.64.24.55,0,0Zm.66,2.63c0-.49.68.16,0,0ZM56.82,81c.41-.64.24.54,0,0Zm-.33-1.32c.2-.5.87.18,0,0Zm3.95-12V68h-.33v-.33ZM60,60.94c.55-.39-.4.55,0,0Zm-.83-1.15c.11.11-.06-.07,0,0ZM59,59c.09-.66-.14,1,0,0Zm-.17,4.77c0-.49.69.16,0,0Zm.66,5.92c-.06.43-.71.93.17,1-.37.86-.48-.35-1-.33A5.58,5.58,0,0,1,59.45,69.66Zm-.33-4.61c.11.11-.06-.07,0,0Zm.31,3.21,0-.15,0,.07S59.44,68.23,59.43,68.26Zm.19-4.69Zm-1.15,9.21c.55-.4-.4.55,0,0Zm-.17-14.3ZM57,63.57Zm-.33-1ZM55,58.81c.23,0,.14.41.17.65C54.8,59.42,54.8,59,55,58.81ZM53.89,19.53c.09.1-.06-.05,0,0Zm0,44.37ZM53,51.9Zm-.82-2.46c.36-.09.23.31.49.32C52.64,50.17,52,49.89,52.22,49.44Zm.33,10.35Zm0,5.26Zm-.17-5.91c-.42,0-.84,0-.82-.5C52,58.46,52.48,58.39,52.38,59.14Zm-.82,5.26Zm-3.29,10c.28-.58.52.54,0,0Zm.5,4.93c-.46,0-.57-.25-.33-.49A.45.45,0,0,1,48.77,79.35ZM46.46,78.2c0-.49.69.16,0,0ZM46.63,84c-.24,0-.06-.49-.33-.5.05-.22.41-.13.66-.16C47,83.63,46.51,83.51,46.63,84Zm-.33-1.32c.14-.48.25-.18.66-.16C46.8,82.74,46.52,82.86,46.3,82.64ZM47.12,81c-.42,0,.66-.74,0-1,.55-.56.64.64.17.66,0,.47,1.07-.2.82.49C47.61,81.37,47.27,80.6,47.12,81Zm.5,3v-.5C48.09,83.22,48.09,84.2,47.62,84Zm.16-.83v-.65h.49C48.2,82.79,48.21,83.19,47.78,83.13Zm1.32-3.45c-.15.63-1,.07-1.16-.33C48.16,79.63,48.88,79.41,49.1,79.68Zm-.5-2.46c0-.5.68.16,0,0Zm.33-11.35v-.82c.45.27,1,.43,1.15,1C49.7,66.42,49.55,65.73,48.93,65.87Zm1.15.66c.1-.66-.14,1,0,0Zm.17,1.15a1,1,0,0,0,.16-.65C50.7,67,50.7,68,50.25,67.68Zm.32-12.82Zm.33,12.33c0,.81,1-.07,1.15.82-.34-.07-.43.11-.65.17,1,.14.83,1.23,1.64,1.15-.14.24-.53.23-.82.33-.32-.25.29-.7-.33-.83-.24.08.06.21,0,.5C51.68,68.54,50.62,68.06,50.9,67.19Zm.33,4.44c0-.49.69.16,0,0Zm.33,5.26a.72.72,0,0,1-.33-.66C51.73,76.07,51.52,76.6,51.56,76.89Zm.17.16c.19-.5.87.18,0,0Zm.57-1.71s0-.16.08-.42a.45.45,0,0,0,0-.08C52.38,75,52.31,75.27,52.3,75.34ZM51.89,70c.41.4.52.08.82.5C52.47,70.92,51.81,70.41,51.89,70ZM53,77.38c0-.49.68.16,0,0Zm-.33-4.44c.15-.28.31-.57.82-.49v.49ZM53.53,80c.1-.4.74-1.11-.16-1.15a.67.67,0,0,1,1-.16C53.9,79.82,54.39,79.54,53.53,80Zm.33-5.09c.29,0,.38.28.33.65H53.7A.86.86,0,0,0,53.86,74.92Zm0-1.15c.55-.4-.39.55,0,0Zm.68,4.45-.2-.18.18.16,0,0,.26.24Zm.64.31c-.45-.5.5.45,0,0Zm1.15-.33H56v-.33h.33Zm-1.64-2.46c.4-.64.23.54,0,0Zm1.64,1.48c-.93-.85-1.75.31-2.47.65C53.75,77.27,55.77,75.86,56.33,77.22Zm-1.81-5.59c-.13.14-.45.1-.49.33a2.25,2.25,0,0,1-1.15-2.3c.59,1.12,1.37.35,1,2,.56.17.26-.51.33-.82C54.55,70.83,54.54,71.22,54.52,71.63Zm.33-.82a.29.29,0,0,0,0,.09C54.86,70.78,54.87,70.72,54.85,70.81ZM55,69c-.4.39.25.3.17.82C54.4,70.1,54.27,68.87,55,69Zm.33-1H55c0-.14-.06-.15-.16-.16C54.78,67.53,55.6,67.61,55.34,68Zm.17-11.83ZM55.27,23c-.06-.28.09-.36.14-.55.2.16.61.12.55.55.17-.15.28-.12.27.14C55.91,23.08,55.72,22.9,55.27,23Zm.89,35.5c.11.11-.06-.07,0,0Zm-.32-8.72c-.07-.06.1.11,0,0Zm-.17,22.53c0-.36.42-.36.82-.33C56.66,72.51,56,72.21,55.67,72.29ZM56.49,67c.76.1-.13,1,0,0Zm.5,7.23c0-.18.32-.11.32-.33C57.77,74,57.32,74.45,57,74.26Zm0-6.08c.54-.12.26.34.16.49C57,68.64,57,68.37,57,68.18Zm.49,3.61c0-.49.68.16,0,0Zm0-4.11c0-.49.68.16,0,0Zm.33,6.74c.41-.64.24.55,0,0Zm-.17-7.07c-1,.14-1-.58-.82-1.31a3.13,3.13,0,0,1,1.32.16C57.42,66.31,57.82,67,57.64,67.35Zm0-3.61c-.46-.17,0-.7,0-1,.27.56,1-.42,1.15.66-.27.06-.31-.13-.32-.33h-.33C58.56,64.35,57.74,63,57.64,63.74Zm.66,10.52a1.07,1.07,0,0,1,.17-.82C59,73.47,58.81,74.32,58.3,74.26Zm.82-.33c.2-.5.88.18,0,0Zm-.33-2.63c.51-.12.2.57.83.33C60.07,71.9,58.53,71.87,58.79,71.3Zm1.65,2.79c-.36.51-1-.19,0,0Zm-1.32-11c-.6-.26.39-.24.17-.66.39.24.3.35.82.17C60.34,63.31,59.13,62.59,59.12,63.08Zm1.15,9.53v0C60.3,72.46,60.31,72.34,60.27,72.61Zm-.16-1c0-.49.68.16,0,0Zm.16-1.32c0-.49.69.16,0,0Zm.33-1c.15.35-.6.38-.49,0C60.17,69.13,60.55,69.19,60.6,69.33Z"/><path class="a" d="M41.92,8.6a.37.37,0,0,0,0,.27.3.3,0,0,0,.31,0A.4.4,0,0,1,41.92,8.6Z"/><path class="a" d="M25.11,35.83a.09.09,0,0,0,.08,0s0,0,0-.06a.07.07,0,0,0-.08,0S25.08,35.8,25.11,35.83Z"/></svg>