<svg xmlns="http://www.w3.org/2000/svg" width="16.667" height="20" viewBox="0 0 16.667 20"><path d="M13.333,3a4.147,4.147,0,0,0-3.314,1.667H8.333A1.658,1.658,0,0,0,6.688,6.589l0,0L8.333,19.667h10L19.98,6.59l0,0a1.658,1.658,0,0,0-1.646-1.922H16.647A4.147,4.147,0,0,0,13.333,3Zm-2.5,5h5a.833.833,0,1,1,0,1.667h-5a.833.833,0,1,1,0-1.667Zm.833,3.333H15A.833.833,0,1,1,15,13H11.667a.833.833,0,1,1,0-1.667Zm-5.833,10a.833.833,0,1,0,0,1.667h15a.833.833,0,1,0,0-1.667Z" transform="translate(-5 -3)" stroke="currentColor" fill="currentColor"/></svg>