<svg xmlns="http://www.w3.org/2000/svg" width="20.869" height="20" viewBox="0 0 20.869 20"><path d="M13.435,4A6.969,6.969,0,0,0,6.718,9.177C4.454,9.814,3,10.761,3,11.826c0,1.433,2.6,2.664,6.318,3.2a5.252,5.252,0,0,0,.549.591L8.238,22.941a.87.87,0,1,0,1.7.377l1.486-6.688a5.161,5.161,0,0,0,1.143.333,6.15,6.15,0,0,0,1.739,0,5.161,5.161,0,0,0,1.143-.333l1.486,6.688a.87.87,0,1,0,1.7-.377L17,15.613a5.253,5.253,0,0,0,.549-.591c3.715-.532,6.318-1.763,6.318-3.2,0-1.065-1.454-2.012-3.718-2.649A6.969,6.969,0,0,0,13.435,4Zm0,1.739a5.2,5.2,0,0,1,5.217,5.217.87.87,0,0,0,.027.226c-.922.891-2.916,1.513-5.244,1.513s-4.323-.622-5.244-1.513a.87.87,0,0,0,.027-.226A5.2,5.2,0,0,1,13.435,5.739Z" transform="translate(-3 -4)" stroke="currentColor" fill="currentColor"/></svg>